<svg xmlns="http://www.w3.org/2000/svg" viewBox="0 0 400 500"><defs><radialGradient id="g" cx=".5" cy=".35" r=".8"><stop offset="0" stop-color="#fde8f1"/><stop offset="1" stop-color="#f8c9de"/></radialGradient><linearGradient id="m" x1="0" y1="0" x2="1" y2="0"><stop offset="0" stop-color="#880d41"/><stop offset=".22" stop-color="#c8135f"/><stop offset=".38" stop-color="#e17da7"/><stop offset=".55" stop-color="#c8135f"/><stop offset=".85" stop-color="#a00f4c"/><stop offset="1" stop-color="#7c0c3b"/></linearGradient><linearGradient id="l" x1="0" y1="0" x2="1" y2="0"><stop offset="0" stop-color="#dbdbdb"/><stop offset=".4" stop-color="#ffffff"/><stop offset="1" stop-color="#e6e6e6"/></linearGradient><filter id="b" x="-20%" y="-50%" width="140%" height="200%"><feGaussianBlur stdDeviation="9"/></filter></defs><rect width="400" height="500" fill="url(#g)"/><ellipse cx="205" cy="432" rx="120" ry="15" fill="#3a1428" opacity=".28" filter="url(#b)"/><g><path d="M120 130 L160 100 Q200 140 240 100 L280 130 L340 230 L290 260 L280 220 L280 400 L120 400 L120 220 L110 260 L60 230 Z" fill="url(#m)"/><path d="M160 100 Q200 140 240 100 Q200 190 160 100Z" fill="url(#l)" opacity=".5"/><rect x="155" y="310" width="90" height="50" rx="10" fill="url(#l)" opacity=".35"/></g></svg>